<?xml version="1.0" encoding="UTF-8" standalone="no"?><!DOCTYPE svg PUBLIC "-//W3C//DTD SVG 1.1//EN" "http://www.w3.org/Graphics/SVG/1.1/DTD/svg11.dtd"><svg width="100%" height="100%" viewBox="0 0 960 600" version="1.1" xmlns="http://www.w3.org/2000/svg" xmlns:xlink="http://www.w3.org/1999/xlink" xml:space="preserve" xmlns:serif="http://www.serif.com/" style="fill-rule:evenodd;clip-rule:evenodd;stroke-linejoin:round;stroke-miterlimit:2;"><g id="Layer_x0020_1"><g id="_2094831424496"><path d="M32.715,330.954c2.406,6.759 6.433,12.75 11.614,17.503c-5.181,-4.753 -9.208,-10.744 -11.614,-17.503Zm84.575,14.595c0,24.047 -19.493,43.54 -43.542,43.54c-33.743,0 -61.554,-25.407 -65.344,-58.135c-0.289,2.509 -0.44,5.064 -0.44,7.652c0,36.332 29.454,65.786 65.786,65.786c17.273,0 32.992,-6.657 44.729,-17.546c9.813,-9.123 16.803,-21.177 19.649,-34.633c0.922,-4.39 1.409,-8.943 1.409,-13.608c0,-2.343 -0.123,-4.656 -0.361,-6.937c-0.026,-0.238 -0.052,-0.476 -0.079,-0.714c-3.79,-32.728 -31.601,-58.135 -65.346,-58.135c-24.047,0 -43.542,19.493 -43.542,43.54c0,5.119 0.884,10.031 2.507,14.595c2.404,6.759 6.433,12.75 11.614,17.503l0,-28.001l16.278,-16.429c4.148,-1.312 8.562,-2.018 13.142,-2.018c11.343,0 21.673,4.335 29.422,11.442c5.181,4.751 9.21,10.744 11.614,17.503c1.623,4.561 2.507,9.474 2.507,14.595Z" style="fill:url(#_Linear1);"/><path d="M8.404,330.954c3.79,32.728 31.601,58.135 65.344,58.135c24.049,0 43.542,-19.493 43.542,-43.54c0,-5.121 -0.884,-10.033 -2.507,-14.595c-2.404,-6.759 -6.433,-12.752 -11.614,-17.503l0,28.005l-16.274,16.423c-4.148,1.312 -8.564,2.02 -13.148,2.02c-11.341,0 -21.671,-4.335 -29.42,-11.442c-5.181,-4.753 -9.208,-10.744 -11.614,-17.503c-1.623,-4.564 -2.507,-9.476 -2.507,-14.595c0,-24.047 19.495,-43.54 43.542,-43.54c33.745,0 61.556,25.407 65.346,58.135c0.289,-2.511 0.44,-5.064 0.44,-7.652c0,-36.332 -29.454,-65.786 -65.786,-65.786c-36.332,0 -65.786,29.454 -65.786,65.786c0,2.588 0.149,5.141 0.44,7.652Z" style="fill:url(#_Linear2);"/></g><g id="_2094831418832"><path d="M227.15,370.419c6.921,0 12.245,-2.479 15.977,-7.405c3.732,-4.957 5.583,-11.991 5.583,-21.106c0,-9.085 -1.851,-16.121 -5.583,-21.019c-3.732,-4.927 -9.056,-7.375 -15.977,-7.375c-6.949,0 -12.304,2.448 -16.064,7.375c-3.732,4.899 -5.611,11.935 -5.611,21.019c0,9.115 1.879,16.149 5.611,21.106c3.76,4.927 9.115,7.405 16.064,7.405Zm46.509,-28.596c0,13.329 -3.845,24.751 -11.507,34.207c-7.69,9.484 -19.338,14.211 -34.974,14.211c-15.636,0 -27.286,-4.727 -34.976,-14.211c-7.662,-9.456 -11.507,-20.878 -11.507,-34.207c0,-13.101 3.845,-24.465 11.507,-34.064c7.69,-9.597 19.34,-14.411 34.976,-14.411c15.636,0 27.284,4.814 34.974,14.411c7.662,9.599 11.507,20.963 11.507,34.064Z" style="fill:#dae1e7;fill-rule:nonzero;"/><path d="M385.682,297.277c4.015,0 7.975,0.769 11.848,2.335c3.901,1.566 7.434,4.301 10.623,8.203c2.563,3.163 4.273,7.064 5.185,11.678c0.541,3.048 0.826,7.518 0.826,13.414l-0.172,57.334l-24.265,0l0,-57.931c0,-3.447 -0.571,-6.295 -1.681,-8.515c-2.135,-4.245 -6.039,-6.352 -11.763,-6.352c-6.608,0 -11.164,2.735 -13.67,8.174c-1.282,2.904 -1.938,6.38 -1.938,10.453l0,54.171l-23.754,0l0,-54.114c0,-5.383 -0.569,-9.315 -1.679,-11.763c-1.994,-4.386 -5.924,-6.58 -11.763,-6.58c-6.778,0 -11.363,2.194 -13.699,6.58c-1.282,2.507 -1.909,6.237 -1.909,11.194l0,54.683l-24.095,0l0,-71.091l24.095,0l-21.647,-19.651l20.622,0l0,13.214c2.935,-4.727 5.724,-8.088 8.318,-10.11c4.614,-3.56 10.566,-5.326 17.885,-5.326c6.949,0 12.56,1.538 16.833,4.586c3.445,2.848 6.039,6.465 7.803,10.937c3.135,-5.355 7.008,-9.256 11.622,-11.763c4.899,-2.507 10.366,-3.76 16.377,-3.76Z" style="fill:#dae1e7;fill-rule:nonzero;"/><path d="M474.512,297.106c9.371,0 17.033,2.479 22.985,7.405c5.952,4.957 8.943,13.103 8.943,24.523l0,61.207l-24.438,0l0,-55.283c0,-4.784 -0.626,-8.459 -1.907,-11.022c-2.307,-4.67 -6.749,-7.006 -13.273,-7.006c-8.003,0 -13.529,3.417 -16.49,10.253c-1.566,3.617 -2.335,8.231 -2.335,13.842l0,49.216l-23.754,0l0,-71.262l24.095,0l-21.459,-19.479l20.434,0l0,13.273c3.048,-4.701 5.924,-8.09 8.659,-10.14c4.87,-3.673 11.051,-5.526 18.541,-5.526Z" style="fill:#dae1e7;fill-rule:nonzero;"/><g><path d="M516.528,299.504l24.095,0l0,90.737l-24.095,0l0,-90.737Z" style="fill:#dae1e7;fill-rule:nonzero;"/><path d="M520.569,271.668l20.054,0l0,18.549l-20.054,-18.549Z" style="fill:#dae1e7;fill-rule:nonzero;"/></g><path d="M550.699,390.241l31.016,-46.027l-29.65,-44.715l29.109,0l15.152,26.287l14.78,-26.287l28.283,0l-29.821,44.289l31.018,46.453l-29.621,0l-15.751,-27.484l-15.893,27.484l-28.622,0Z" style="fill:#dae1e7;fill-rule:nonzero;"/><path d="M698.094,363.467c0,4.329 1.595,7.746 4.755,10.253c3.163,2.507 6.923,3.76 11.281,3.76c5.268,0 10.395,-1.225 15.35,-3.673c8.346,-4.045 12.504,-10.709 12.504,-19.937l0,-12.106c-1.823,1.169 -4.186,2.166 -7.09,2.935c-2.906,0.769 -5.726,1.338 -8.517,1.651l-9.085,1.169c-5.468,0.741 -9.541,1.879 -12.276,3.445c-4.614,2.592 -6.921,6.78 -6.921,12.504Zm36.371,-30.36c3.445,-0.456 5.781,-1.909 6.949,-4.358c0.656,-1.34 0.997,-3.248 0.997,-5.754c0,-5.127 -1.823,-8.828 -5.468,-11.135c-3.647,-2.307 -8.859,-3.476 -15.667,-3.476c-7.831,0 -13.386,2.137 -16.662,6.352c-1.851,2.335 -3.048,5.811 -3.589,10.425l-14.04,0c0.285,-10.994 3.873,-18.656 10.736,-22.985c6.864,-4.301 14.839,-6.465 23.897,-6.465c10.51,0 19.053,1.992 25.633,6.009c6.493,4.017 9.741,10.225 9.741,18.684l0,51.494c0,1.566 0.341,2.82 0.969,3.76c0.654,0.939 1.992,1.423 4.043,1.423c0.684,0 1.425,-0.057 2.25,-0.141c0.856,-0.087 1.738,-0.2 2.678,-0.371l0,11.109c-2.335,0.654 -4.13,1.082 -5.355,1.253c-1.197,0.141 -2.878,0.226 -4.985,0.226c-5.183,0 -8.943,-1.823 -11.279,-5.496c-1.225,-1.938 -2.079,-4.699 -2.592,-8.259c-3.048,4.015 -7.434,7.49 -13.158,10.423c-5.754,2.963 -12.048,4.416 -18.969,4.416c-8.289,0 -15.039,-2.507 -20.309,-7.549c-5.24,-5.012 -7.888,-11.335 -7.888,-18.882c0,-8.289 2.592,-14.726 7.775,-19.283c5.155,-4.557 11.963,-7.377 20.365,-8.431l23.924,-2.989Z" style="fill:#dae1e7;fill-rule:nonzero;"/><path d="M775.796,272.607l14.583,0l0,35.695c3.304,-4.273 7.208,-7.549 11.763,-9.799c4.586,-2.25 9.513,-3.389 14.867,-3.389c11.137,0 20.137,3.845 27.086,11.478c6.921,7.662 10.368,18.94 10.368,33.836c0,14.126 -3.419,25.861 -10.255,35.202c-6.834,9.343 -16.318,14.042 -28.453,14.042c-6.778,0 -12.502,-1.651 -17.174,-4.927c-2.789,-1.966 -5.781,-5.07 -8.943,-9.343l0,11.422l-13.842,0l0,-114.217Zm39.049,103.792c8.118,0 14.183,-3.217 18.228,-9.682c4.045,-6.467 6.039,-14.954 6.039,-25.548c0,-9.399 -1.994,-17.174 -6.039,-23.354c-4.045,-6.18 -9.969,-9.256 -17.83,-9.256c-6.834,0 -12.817,2.533 -17.971,7.603c-5.155,5.042 -7.718,13.386 -7.718,25.007c0,8.402 1.054,15.237 3.161,20.45c3.96,9.854 11.337,14.78 22.131,14.78Zm66.077,-17.6c0.456,4.983 1.708,8.828 3.758,11.507c3.788,4.84 10.34,7.262 19.681,7.262c5.583,0 10.481,-1.225 14.698,-3.645c4.243,-2.422 6.35,-6.152 6.35,-11.222c0,-3.817 -1.708,-6.751 -5.096,-8.744c-2.166,-1.225 -6.467,-2.65 -12.847,-4.273l-11.933,-2.991c-7.633,-1.907 -13.244,-4.015 -16.861,-6.35c-6.437,-4.045 -9.684,-9.684 -9.684,-16.861c0,-8.459 3.048,-15.295 9.143,-20.507c6.095,-5.242 14.298,-7.862 24.58,-7.862c13.471,0 23.155,3.958 29.107,11.848c3.732,5.014 5.555,10.397 5.441,16.207l-14.185,0c-0.285,-3.419 -1.479,-6.495 -3.589,-9.286c-3.445,-3.93 -9.426,-5.924 -17.943,-5.924c-5.668,0 -9.969,1.112 -12.901,3.276c-2.904,2.164 -4.386,5.014 -4.386,8.572c0,3.904 1.936,7.036 5.781,9.371c2.222,1.366 5.498,2.592 9.827,3.645l9.94,2.422c10.794,2.62 18.028,5.155 21.701,7.603c5.839,3.845 8.744,9.884 8.744,18.115c0,7.946 -3.017,14.811 -9.056,20.591c-6.039,5.811 -15.208,8.687 -27.571,8.687c-13.299,0 -22.698,-3.017 -28.253,-9.056c-5.524,-6.039 -8.487,-13.501 -8.887,-22.386l14.441,0Z" style="fill:#dae1e7;fill-rule:nonzero;"/><path d="M657.248,272.607l15.037,0l0,117.634l-15.037,0l0,-117.634Z" style="fill:#dae1e7;fill-rule:nonzero;"/></g></g><defs><linearGradient id="_Linear1" x1="0" y1="0" x2="1" y2="0" gradientUnits="userSpaceOnUse" gradientTransform="matrix(81.905001,88.309253,-88.309253,81.905001,17.801793,307.500404)"><stop offset="0" style="stop-color:#30d8dc;stop-opacity:1"/><stop offset="0.65" style="stop-color:#1b84bc;stop-opacity:1"/><stop offset="1" style="stop-color:#06309c;stop-opacity:1"/></linearGradient><linearGradient id="_Linear2" x1="0" y1="0" x2="1" y2="0" gradientUnits="userSpaceOnUse" gradientTransform="matrix(81.905001,88.309253,-88.309253,81.905001,17.801793,292.199226)"><stop offset="0" style="stop-color:#06309c;stop-opacity:1"/><stop offset="0.65" style="stop-color:#1b84bc;stop-opacity:1"/><stop offset="1" style="stop-color:#30d9dc;stop-opacity:1"/></linearGradient></defs></svg>